# Object Export From Tinkercad Server 2015

mtllib obj.mtl

o obj_0
v -9.6538 		5.5314 		43.625
v -9.75 		6.9998 		43.625
v 1.5 		6.9998 		43.625
v -9.3667 		4.0881 		43.625
v -8.8936 		2.6946 		43.625
v -8.2428 		1.3748 		43.625
v -7.4252 		0.1512 		43.625
v -6.455 		-0.9552 		43.625
v -5.3486 		-1.9254 		43.625
v -4.125 		-2.743 		43.625
v -2.8052 		-3.3938 		43.625
v -1.4117 		-3.8669 		43.625
v 0.0316 		-4.154 		43.625
v 1.5 		-4.2502 		43.625
v 2.9684 		-4.154 		43.625
v 4.4117 		-3.8669 		43.625
v 5.8052 		-3.3938 		43.625
v 7.125 		-2.743 		43.625
v 8.3486 		-1.9254 		43.625
v 9.455 		-0.9552 		43.625
v 10.4252 		0.1512 		43.625
v 11.2428 		1.3748 		43.625
v 11.8936 		2.6946 		43.625
v 12.3667 		4.0881 		43.625
v 12.6538 		5.5314 		43.625
v 12.75 		6.9998 		43.625
v 12.6538 		8.4682 		43.625
v 12.3667 		9.9115 		43.625
v 11.8936 		11.305 		43.625
v 11.2428 		12.6248 		43.625
v 10.4252 		13.8484 		43.625
v 9.455 		14.9548 		43.625
v 8.3486 		15.925 		43.625
v 7.125 		16.7426 		43.625
v 5.8052 		17.3934 		43.625
v 4.4117 		17.8665 		43.625
v 2.9684 		18.1536 		43.625
v 1.5 		18.2498 		43.625
v 0.0316 		18.1536 		43.625
v -1.4117 		17.8665 		43.625
v -2.8052 		17.3934 		43.625
v -4.125 		16.7426 		43.625
v -5.3486 		15.925 		43.625
v -6.455 		14.9548 		43.625
v -7.4252 		13.8484 		43.625
v -8.2428 		12.6248 		43.625
v -8.8936 		11.305 		43.625
v -9.3667 		9.9115 		43.625
v -9.6538 		8.4682 		43.625
v -9.75 		6.9998 		111.375
v -9.6538 		5.5314 		111.375
v 1.5 		6.9998 		111.375
v -9.3667 		4.0881 		111.375
v -8.8936 		2.6946 		111.375
v -8.2428 		1.3748 		111.375
v -7.4252 		0.1512 		111.375
v -6.455 		-0.9552 		111.375
v -5.3486 		-1.9254 		111.375
v -4.125 		-2.743 		111.375
v -2.8052 		-3.3938 		111.375
v -1.4117 		-3.8669 		111.375
v 0.0316 		-4.154 		111.375
v 1.5 		-4.2502 		111.375
v 2.9684 		-4.154 		111.375
v 4.4117 		-3.8669 		111.375
v 5.8052 		-3.3938 		111.375
v 7.125 		-2.743 		111.375
v 8.3486 		-1.9254 		111.375
v 9.455 		-0.9552 		111.375
v 10.4252 		0.1512 		111.375
v 11.2428 		1.3748 		111.375
v 11.8936 		2.6946 		111.375
v 12.3667 		4.0881 		111.375
v 12.6538 		5.5314 		111.375
v 12.75 		6.9998 		111.375
v 12.6538 		8.4682 		111.375
v 12.3667 		9.9115 		111.375
v 11.8936 		11.305 		111.375
v 11.2428 		12.6248 		111.375
v 10.4252 		13.8484 		111.375
v 9.455 		14.9548 		111.375
v 8.3486 		15.925 		111.375
v 7.125 		16.7426 		111.375
v 5.8052 		17.3934 		111.375
v 4.4117 		17.8665 		111.375
v 2.9684 		18.1536 		111.375
v 1.5 		18.2498 		111.375
v 0.0316 		18.1536 		111.375
v -1.4117 		17.8665 		111.375
v -2.8052 		17.3934 		111.375
v -4.125 		16.7426 		111.375
v -5.3486 		15.925 		111.375
v -6.455 		14.9548 		111.375
v -7.4252 		13.8484 		111.375
v -8.2428 		12.6248 		111.375
v -8.8936 		11.305 		111.375
v -9.3667 		9.9115 		111.375
v -9.6538 		8.4682 		111.375
# 98 vertices

g group_0_16311991

usemtl color_16311991
s 0

f 1 	2 	3
f 4 	1 	3
f 5 	4 	3
f 6 	5 	3
f 7 	6 	3
f 8 	7 	3
f 9 	8 	3
f 10 	9 	3
f 11 	10 	3
f 12 	11 	3
f 13 	12 	3
f 14 	13 	3
f 15 	14 	3
f 16 	15 	3
f 17 	16 	3
f 18 	17 	3
f 19 	18 	3
f 20 	19 	3
f 21 	20 	3
f 22 	21 	3
f 23 	22 	3
f 24 	23 	3
f 25 	24 	3
f 26 	25 	3
f 27 	26 	3
f 28 	27 	3
f 29 	28 	3
f 30 	29 	3
f 31 	30 	3
f 32 	31 	3
f 33 	32 	3
f 34 	33 	3
f 35 	34 	3
f 36 	35 	3
f 37 	36 	3
f 38 	37 	3
f 39 	38 	3
f 40 	39 	3
f 41 	40 	3
f 42 	41 	3
f 43 	42 	3
f 44 	43 	3
f 45 	44 	3
f 46 	45 	3
f 47 	46 	3
f 48 	47 	3
f 49 	48 	3
f 2 	49 	3
f 50 	51 	52
f 51 	53 	52
f 53 	54 	52
f 54 	55 	52
f 55 	56 	52
f 56 	57 	52
f 57 	58 	52
f 58 	59 	52
f 59 	60 	52
f 60 	61 	52
f 61 	62 	52
f 62 	63 	52
f 63 	64 	52
f 64 	65 	52
f 65 	66 	52
f 66 	67 	52
f 67 	68 	52
f 68 	69 	52
f 69 	70 	52
f 70 	71 	52
f 71 	72 	52
f 72 	73 	52
f 73 	74 	52
f 74 	75 	52
f 75 	76 	52
f 76 	77 	52
f 77 	78 	52
f 78 	79 	52
f 79 	80 	52
f 80 	81 	52
f 81 	82 	52
f 82 	83 	52
f 83 	84 	52
f 84 	85 	52
f 85 	86 	52
f 86 	87 	52
f 87 	88 	52
f 88 	89 	52
f 89 	90 	52
f 90 	91 	52
f 91 	92 	52
f 92 	93 	52
f 93 	94 	52
f 94 	95 	52
f 95 	96 	52
f 96 	97 	52
f 97 	98 	52
f 98 	50 	52
f 2 	1 	1
f 1 	4 	4
f 4 	5 	5
f 5 	6 	6
f 6 	7 	7
f 7 	8 	8
f 8 	9 	9
f 9 	10 	10
f 10 	11 	11
f 11 	12 	12
f 12 	13 	13
f 13 	14 	14
f 14 	15 	15
f 15 	16 	16
f 16 	17 	17
f 17 	18 	18
f 18 	19 	19
f 19 	20 	20
f 20 	21 	21
f 21 	22 	22
f 22 	23 	23
f 23 	24 	24
f 24 	25 	25
f 25 	26 	26
f 26 	27 	27
f 27 	28 	28
f 28 	29 	29
f 29 	30 	30
f 30 	31 	31
f 31 	32 	32
f 32 	33 	33
f 33 	34 	34
f 34 	35 	35
f 35 	36 	36
f 36 	37 	37
f 37 	38 	38
f 38 	39 	39
f 39 	40 	40
f 40 	41 	41
f 41 	42 	42
f 42 	43 	43
f 43 	44 	44
f 44 	45 	45
f 45 	46 	46
f 46 	47 	47
f 47 	48 	48
f 48 	49 	49
f 49 	2 	2
f 2 	1 	51
f 2 	51 	50
f 1 	4 	53
f 1 	53 	51
f 4 	5 	54
f 4 	54 	53
f 5 	6 	55
f 5 	55 	54
f 6 	7 	56
f 6 	56 	55
f 7 	8 	57
f 7 	57 	56
f 8 	9 	58
f 8 	58 	57
f 9 	10 	59
f 9 	59 	58
f 10 	11 	60
f 10 	60 	59
f 11 	12 	61
f 11 	61 	60
f 12 	13 	62
f 12 	62 	61
f 13 	14 	63
f 13 	63 	62
f 14 	15 	64
f 14 	64 	63
f 15 	16 	65
f 15 	65 	64
f 16 	17 	66
f 16 	66 	65
f 17 	18 	67
f 17 	67 	66
f 18 	19 	68
f 18 	68 	67
f 19 	20 	69
f 19 	69 	68
f 20 	21 	70
f 20 	70 	69
f 21 	22 	71
f 21 	71 	70
f 22 	23 	72
f 22 	72 	71
f 23 	24 	73
f 23 	73 	72
f 24 	25 	74
f 24 	74 	73
f 25 	26 	75
f 25 	75 	74
f 26 	27 	76
f 26 	76 	75
f 27 	28 	77
f 27 	77 	76
f 28 	29 	78
f 28 	78 	77
f 29 	30 	79
f 29 	79 	78
f 30 	31 	80
f 30 	80 	79
f 31 	32 	81
f 31 	81 	80
f 32 	33 	82
f 32 	82 	81
f 33 	34 	83
f 33 	83 	82
f 34 	35 	84
f 34 	84 	83
f 35 	36 	85
f 35 	85 	84
f 36 	37 	86
f 36 	86 	85
f 37 	38 	87
f 37 	87 	86
f 38 	39 	88
f 38 	88 	87
f 39 	40 	89
f 39 	89 	88
f 40 	41 	90
f 40 	90 	89
f 41 	42 	91
f 41 	91 	90
f 42 	43 	92
f 42 	92 	91
f 43 	44 	93
f 43 	93 	92
f 44 	45 	94
f 44 	94 	93
f 45 	46 	95
f 45 	95 	94
f 46 	47 	96
f 46 	96 	95
f 47 	48 	97
f 47 	97 	96
f 48 	49 	98
f 48 	98 	97
f 49 	2 	50
f 49 	50 	98
f 50 	51 	51
f 51 	53 	53
f 53 	54 	54
f 54 	55 	55
f 55 	56 	56
f 56 	57 	57
f 57 	58 	58
f 58 	59 	59
f 59 	60 	60
f 60 	61 	61
f 61 	62 	62
f 62 	63 	63
f 63 	64 	64
f 64 	65 	65
f 65 	66 	66
f 66 	67 	67
f 67 	68 	68
f 68 	69 	69
f 69 	70 	70
f 70 	71 	71
f 71 	72 	72
f 72 	73 	73
f 73 	74 	74
f 74 	75 	75
f 75 	76 	76
f 76 	77 	77
f 77 	78 	78
f 78 	79 	79
f 79 	80 	80
f 80 	81 	81
f 81 	82 	82
f 82 	83 	83
f 83 	84 	84
f 84 	85 	85
f 85 	86 	86
f 86 	87 	87
f 87 	88 	88
f 88 	89 	89
f 89 	90 	90
f 90 	91 	91
f 91 	92 	92
f 92 	93 	93
f 93 	94 	94
f 94 	95 	95
f 95 	96 	96
f 96 	97 	97
f 97 	98 	98
f 98 	50 	50
# 288 faces

 #end of obj_0

o obj_1
v 7.449 		7.7828 		118.875
v 7.296 		8.5528 		118.875
v 16.25 		6.9998 		38.625
v 16.124 		5.0748 		38.625
v 15.747 		3.1818 		38.625
v 15.127 		1.3548 		38.625
v 14.274 		-0.3752 		38.625
v 13.202 		-1.9792 		38.625
v 11.93 		-3.4302 		38.625
v 10.479 		-4.7022 		38.625
v 7.296 		8.5528 		121.375
v 7.449 		7.7828 		121.375
v 1.503 		-7.75 		38.625
v 7.043 		9.2958 		118.875
v 8.875 		-5.7742 		38.625
v 7.043 		9.2958 		121.375
v 7.145 		-6.6272 		38.625
v 5.318 		-7.2472 		38.625
v 3.425 		-7.6242 		38.625
v 6.696 		9.9998 		118.875
v 6.696 		9.9998 		121.375
v 10.479 		18.7018 		38.625
v 11.93 		17.4298 		38.625
v 13.202 		15.9788 		38.625
v 14.274 		14.3748 		38.625
v 6.26 		10.6528 		118.875
v 15.127 		12.6448 		38.625
v 6.26 		10.6528 		121.375
v 15.747 		10.8178 		38.625
v 16.124 		8.9248 		38.625
v 1.503 		21.7496 		38.625
v 3.425 		21.6238 		38.625
v 5.318 		21.2468 		38.625
v 7.145 		20.6268 		38.625
v 8.875 		19.7738 		38.625
v 5.75 		6.9998 		116.375
v 5.75 		11.2348 		118.875
v 1.503 		11.2498 		118.875
v 1.503 		12.9996 		118.875
v 2.283 		12.9488 		118.875
v 3.053 		12.7958 		118.875
v 3.796 		12.5428 		118.875
v 4.5 		12.1958 		118.875
v 5.153 		11.7598 		118.875
v 5.735 		11.2498 		118.875
v 5.743 		2.7568 		121.375
v 5.153 		11.7598 		121.375
v 4.5 		12.1958 		121.375
v 3.796 		12.5428 		121.375
v 3.053 		12.7958 		121.375
v 2.283 		12.9488 		121.375
v 5.743 		11.2428 		121.375
v 5.735 		2.7498 		118.875
v 5.743 		2.7568 		118.875
v 5.75 		2.7648 		118.875
v 2.055 		2.7858 		116.375
v 1.503 		2.75 		116.375
v 1.503 		2.75 		118.875
v 1.503 		2.7498 		118.875
v 2.6 		2.8948 		116.375
v 3.126 		3.0738 		116.375
v 5.743 		11.2428 		118.875
v 3.625 		3.3188 		116.375
v 1.503 		11.2496 		118.875
v 4.087 		3.6278 		116.375
v 4.505 		3.9948 		116.375
v 2.055 		2.7858 		118.875
v 4.872 		4.4128 		116.375
v 2.6 		2.8948 		118.875
v 3.126 		3.0738 		118.875
v 3.625 		3.3188 		118.875
v 5.181 		4.8748 		116.375
v 4.087 		3.6278 		118.875
v 5.426 		5.3738 		116.375
v 4.505 		3.9948 		118.875
v 5.605 		5.8998 		116.375
v 4.872 		4.4128 		118.875
v 5.714 		6.4448 		116.375
v 5.181 		4.8748 		118.875
v 5.426 		5.3738 		118.875
v 5.714 		7.5548 		116.375
v 5.605 		5.8998 		118.875
v 5.714 		6.4448 		118.875
v 5.605 		8.0998 		116.375
v 5.75 		6.9998 		118.875
v 5.426 		8.6258 		116.375
v 5.714 		7.5548 		118.875
v 5.605 		8.0998 		118.875
v 5.426 		8.6258 		118.875
v 14.274 		14.3748 		116.375
v 13.202 		15.9788 		116.375
v 11.93 		17.4298 		116.375
v 10.479 		18.7018 		116.375
v 15.127 		12.6448 		116.375
v 5.181 		9.1248 		118.875
v 1.503 		12.9996 		121.375
v 4.872 		9.5868 		118.875
v 4.505 		10.0048 		118.875
v 4.087 		10.3718 		118.875
v 16.124 		8.9248 		116.375
v 15.747 		10.8178 		116.375
v 8.875 		19.7738 		116.375
v 7.145 		20.6268 		116.375
v 5.318 		21.2468 		116.375
v 3.425 		21.6238 		116.375
v 1.503 		21.7496 		116.375
v 5.153 		2.2398 		118.875
v 4.5 		1.8038 		118.875
v 3.625 		10.6808 		118.875
v 3.796 		1.4568 		118.875
v 3.053 		1.2038 		118.875
v 2.283 		1.0508 		118.875
v 1.503 		1 		118.875
v 3.126 		10.9258 		118.875
v 2.6 		11.1048 		118.875
v 3.796 		1.4568 		121.375
v 2.055 		11.2138 		118.875
v 4.5 		1.8038 		121.375
v 5.153 		2.2398 		121.375
v 1.503 		1 		121.375
v 2.283 		1.0508 		121.375
v 3.053 		1.2038 		121.375
v 5.181 		9.1248 		116.375
v 4.872 		9.5868 		116.375
v 4.505 		10.0048 		116.375
v 4.087 		10.3718 		116.375
v 3.625 		10.6808 		116.375
v 3.126 		10.9258 		116.375
v 6.696 		3.9998 		118.875
v 6.26 		3.3468 		118.875
v 2.6 		11.1048 		116.375
v 2.055 		11.2138 		116.375
v 7.5 		6.9998 		118.875
v 7.449 		6.2168 		118.875
v 7.296 		5.4468 		118.875
v 7.043 		4.7038 		118.875
v 1.503 		11.2496 		116.375
v 10.479 		-4.7022 		116.375
v 11.93 		-3.4302 		116.375
v 13.202 		-1.9792 		116.375
v 14.274 		-0.3752 		116.375
v 6.26 		3.3468 		121.375
v 6.696 		3.9998 		121.375
v 7.5 		6.9998 		121.375
v 7.043 		4.7038 		121.375
v 7.296 		5.4468 		121.375
v 7.449 		6.2168 		121.375
v 15.127 		1.3548 		116.375
v 16.25 		6.9998 		116.375
v 15.747 		3.1818 		116.375
v 16.124 		5.0748 		116.375
v 1.503 		-7.75 		116.375
v 3.425 		-7.6242 		116.375
v 5.318 		-7.2472 		116.375
v 7.145 		-6.6272 		116.375
v 8.875 		-5.7742 		116.375
# 156 vertices

g group_1_6383466

usemtl color_6383466
s 0

f 99 	100 	109
f 99 	109 	110
f 102 	103 	101
f 101 	103 	104
f 101 	104 	105
f 101 	105 	106
f 101 	106 	107
f 101 	107 	108
f 114 	109 	112
f 100 	112 	109
f 113 	115 	120
f 115 	116 	120
f 116 	117 	120
f 111 	120 	117
f 112 	118 	119
f 112 	119 	114
f 118 	124 	126
f 118 	126 	119
f 122 	108 	121
f 123 	108 	122
f 125 	108 	123
f 127 	108 	125
f 128 	108 	127
f 101 	108 	128
f 120 	121 	108
f 111 	129 	130
f 111 	130 	131
f 111 	131 	132
f 111 	132 	133
f 111 	133 	120
f 108 	113 	120
f 124 	135 	126
f 136 	137 	138
f 136 	138 	139
f 136 	139 	140
f 136 	140 	141
f 136 	141 	142
f 136 	142 	143
f 144 	194 	217
f 144 	240 	194
f 194 	126 	150
f 172 	246 	174
f 158 	253 	159
f 154 	252 	158
f 152 	144 	151
f 217 	151 	144
f 152 	153 	144
f 155 	250 	154
f 157 	218 	156
f 159 	253 	161
f 160 	150 	135
f 126 	135 	150
f 160 	143 	150
f 194 	136 	162
f 156 	194 	162
f 161 	236 	163
f 163 	237 	164
f 151 	157 	165
f 156 	165 	157
f 165 	167 	151
f 167 	168 	151
f 168 	169 	151
f 169 	171 	151
f 164 	237 	166
f 171 	173 	151
f 152 	151 	173
f 170 	246 	172
f 153 	152 	173
f 166 	238 	170
f 173 	175 	153
f 177 	153 	175
f 174 	248 	176
f 177 	178 	153
f 178 	180 	153
f 134 	247 	179
f 180 	181 	153
f 179 	199 	182
f 183 	153 	181
f 199 	192 	182
f 135 	183 	185
f 135 	185 	186
f 191 	224 	190
f 190 	222 	189
f 189 	221 	188
f 188 	221 	192
f 186 	187 	135
f 187 	193 	135
f 193 	195 	135
f 195 	196 	135
f 146 	194 	145
f 147 	194 	146
f 148 	149 	147
f 194 	147 	149
f 150 	145 	194
f 160 	135 	196
f 143 	160 	196
f 142 	145 	143
f 150 	143 	145
f 142 	141 	146
f 142 	146 	145
f 196 	197 	143
f 197 	207 	143
f 141 	140 	147
f 141 	147 	146
f 140 	139 	148
f 140 	148 	147
f 139 	138 	149
f 139 	149 	148
f 138 	137 	194
f 138 	194 	149
f 184 	182 	192
f 198 	199 	179
f 137 	136 	194
f 202 	229 	201
f 201 	225 	200
f 203 	230 	202
f 207 	212 	143
f 212 	213 	143
f 206 	157 	205
f 208 	157 	206
f 209 	157 	208
f 210 	157 	209
f 211 	157 	210
f 151 	205 	157
f 204 	230 	203
f 225 	201 	226
f 191 	200 	225
f 225 	224 	191
f 213 	215 	143
f 217 	194 	216
f 214 	216 	194
f 218 	219 	194
f 219 	220 	194
f 214 	194 	220
f 222 	190 	223
f 143 	215 	136
f 162 	136 	215
f 218 	211 	210
f 218 	210 	219
f 156 	155 	154
f 156 	154 	165
f 210 	209 	220
f 210 	220 	219
f 154 	158 	167
f 154 	167 	165
f 184 	192 	221
f 209 	208 	214
f 209 	214 	220
f 208 	206 	216
f 208 	216 	214
f 221 	189 	222
f 223 	190 	224
f 206 	205 	217
f 206 	217 	216
f 205 	151 	217
f 211 	218 	157
f 194 	156 	218
f 153 	183 	228
f 226 	201 	229
f 229 	202 	230
f 235 	230 	204
f 99 	231 	183
f 231 	232 	183
f 232 	233 	183
f 234 	227 	183
f 227 	228 	183
f 233 	234 	183
f 124 	118 	183
f 135 	124 	183
f 118 	112 	183
f 112 	100 	183
f 100 	99 	183
f 201 	131 	202
f 131 	130 	202
f 241 	194 	240
f 109 	194 	110
f 242 	110 	194
f 243 	194 	241
f 243 	244 	194
f 245 	194 	244
f 242 	194 	245
f 126 	194 	119
f 114 	119 	194
f 109 	114 	194
f 239 	106 	105
f 107 	106 	238
f 228 	240 	153
f 144 	153 	240
f 106 	239 	238
f 228 	227 	241
f 228 	241 	240
f 158 	159 	168
f 158 	168 	167
f 227 	234 	243
f 227 	243 	241
f 159 	161 	169
f 159 	169 	168
f 234 	233 	244
f 234 	244 	243
f 163 	171 	169
f 163 	169 	161
f 233 	232 	245
f 233 	245 	244
f 164 	173 	171
f 164 	171 	163
f 251 	111 	117
f 232 	231 	242
f 232 	242 	245
f 164 	166 	175
f 164 	175 	173
f 231 	99 	110
f 231 	110 	242
f 116 	251 	117
f 177 	175 	166
f 166 	170 	177
f 170 	172 	178
f 170 	178 	177
f 172 	174 	180
f 172 	180 	178
f 174 	176 	181
f 174 	181 	180
f 115 	253 	116
f 176 	134 	183
f 176 	183 	181
f 253 	115 	113
f 134 	179 	185
f 134 	185 	183
f 179 	182 	186
f 179 	186 	185
f 182 	184 	187
f 182 	187 	186
f 199 	128 	127
f 162 	235 	156
f 127 	125 	199
f 193 	187 	221
f 184 	221 	187
f 221 	222 	195
f 221 	195 	193
f 189 	123 	122
f 189 	122 	190
f 121 	190 	122
f 222 	223 	196
f 222 	196 	195
f 190 	121 	120
f 223 	224 	197
f 223 	197 	196
f 200 	120 	133
f 224 	225 	207
f 224 	207 	197
f 225 	226 	212
f 225 	212 	207
f 226 	229 	213
f 226 	213 	212
f 201 	200 	132
f 133 	132 	200
f 229 	230 	215
f 229 	215 	213
f 132 	131 	201
f 230 	235 	162
f 230 	162 	215
f 103 	248 	104
f 248 	174 	246
f 237 	163 	236
f 238 	239 	170
f 238 	166 	237
f 246 	170 	239
f 248 	103 	102
f 198 	179 	247
f 176 	248 	249
f 249 	247 	176
f 134 	176 	247
f 198 	101 	128
f 251 	154 	250
f 252 	154 	251
f 253 	158 	252
f 254 	161 	253
f 236 	161 	254
f 116 	252 	251
f 239 	104 	246
f 113 	254 	253
f 104 	248 	246
f 108 	236 	113
f 128 	199 	198
f 111 	251 	250
f 155 	111 	250
f 156 	235 	155
f 125 	192 	199
f 125 	123 	188
f 125 	188 	192
f 123 	189 	188
f 190 	120 	191
f 191 	120 	200
f 202 	130 	203
f 204 	203 	129
f 130 	129 	203
f 111 	155 	235
f 111 	235 	129
f 204 	129 	235
f 254 	113 	236
f 236 	108 	237
f 107 	237 	108
f 107 	238 	237
f 239 	105 	104
f 249 	248 	102
f 247 	249 	101
f 102 	101 	249
f 247 	101 	198
f 253 	252 	116
# 308 faces

 #end of obj_1

o obj_2
v 5 		62 		155
v 10.3909 		61.7352 		155
v 10.3909 		61.7352 		-5
v 5 		62 		-5
v 15.73 		60.9432 		155
v 15.73 		60.9432 		-5
v 20.9657 		59.6317 		155
v 20.9657 		59.6317 		-5
v 26.0476 		57.8134 		155
v 26.0476 		57.8134 		-5
v 30.9268 		55.5057 		155
v 30.9268 		55.5057 		-5
v 35.5564 		52.7308 		155
v 35.5564 		52.7308 		-5
v 39.8916 		49.5156 		155
v 39.8916 		49.5156 		-5
v 43.8909 		45.8909 		155
v 43.8909 		45.8909 		-5
v 47.5156 		41.8916 		155
v 47.5156 		41.8916 		-5
v 50.7308 		37.5564 		155
v 50.7308 		37.5564 		-5
v 53.5057 		32.9268 		155
v 53.5057 		32.9268 		-5
v 55.8134 		28.0476 		155
v 55.8134 		28.0476 		-5
v 57.6317 		22.9657 		155
v 57.6317 		22.9657 		-5
v 58.9432 		17.73 		155
v 58.9432 		17.73 		-5
v 59.7352 		12.3909 		155
v 59.7352 		12.3909 		-5
v 60 		7 		155
v 60 		7 		-5
v 59.7352 		1.6091 		155
v 59.7352 		1.6091 		-5
v 58.9432 		-3.73 		155
v 58.9432 		-3.73 		-5
v 57.6317 		-8.9657 		155
v 57.6317 		-8.9657 		-5
v 55.8134 		-14.0476 		155
v 55.8134 		-14.0476 		-5
v 53.5057 		-18.9268 		155
v 53.5057 		-18.9268 		-5
v 50.7308 		-23.5564 		155
v 50.7308 		-23.5564 		-5
v 47.5156 		-27.8916 		155
v 47.5156 		-27.8916 		-5
v 43.8909 		-31.8909 		155
v 43.8909 		-31.8909 		-5
v 39.8916 		-35.5156 		155
v 39.8916 		-35.5156 		-5
v 35.5564 		-38.7308 		155
v 35.5564 		-38.7308 		-5
v 30.9268 		-41.5057 		155
v 30.9268 		-41.5057 		-5
v 26.0476 		-43.8134 		155
v 26.0476 		-43.8134 		-5
v 20.9657 		-45.6317 		155
v 20.9657 		-45.6317 		-5
v 15.73 		-46.9432 		155
v 15.73 		-46.9432 		-5
v 10.3909 		-47.7352 		155
v 10.3909 		-47.7352 		-5
v 5 		-48 		155
v 5 		-48 		-5
v 5 		7 		-5
v 5 		7 		155
# 68 vertices

g group_2_12568524

usemtl color_12568524
s 0

f 255 	256 	257
f 258 	255 	257
f 256 	259 	260
f 257 	256 	260
f 259 	261 	262
f 260 	259 	262
f 261 	263 	264
f 262 	261 	264
f 263 	265 	266
f 264 	263 	266
f 265 	267 	268
f 266 	265 	268
f 267 	269 	270
f 268 	267 	270
f 269 	271 	272
f 270 	269 	272
f 271 	273 	274
f 272 	271 	274
f 273 	275 	276
f 274 	273 	276
f 275 	277 	278
f 276 	275 	278
f 277 	279 	280
f 278 	277 	280
f 279 	281 	282
f 280 	279 	282
f 281 	283 	284
f 282 	281 	284
f 283 	285 	286
f 284 	283 	286
f 285 	287 	288
f 286 	285 	288
f 287 	289 	290
f 288 	287 	290
f 289 	291 	292
f 290 	289 	292
f 291 	293 	294
f 292 	291 	294
f 293 	295 	296
f 294 	293 	296
f 295 	297 	298
f 296 	295 	298
f 297 	299 	300
f 298 	297 	300
f 299 	301 	302
f 300 	299 	302
f 301 	303 	304
f 302 	301 	304
f 303 	305 	306
f 304 	303 	306
f 305 	307 	308
f 306 	305 	308
f 307 	309 	310
f 308 	307 	310
f 309 	311 	312
f 310 	309 	312
f 311 	313 	314
f 312 	311 	314
f 313 	315 	316
f 314 	313 	316
f 315 	317 	318
f 316 	315 	318
f 317 	319 	320
f 318 	317 	320
f 258 	257 	321
f 257 	260 	321
f 260 	262 	321
f 262 	264 	321
f 264 	266 	321
f 266 	268 	321
f 268 	270 	321
f 270 	272 	321
f 272 	274 	321
f 274 	276 	321
f 276 	278 	321
f 278 	280 	321
f 280 	282 	321
f 282 	284 	321
f 284 	286 	321
f 286 	288 	321
f 288 	290 	321
f 290 	292 	321
f 292 	294 	321
f 294 	296 	321
f 296 	298 	321
f 298 	300 	321
f 300 	302 	321
f 302 	304 	321
f 304 	306 	321
f 306 	308 	321
f 308 	310 	321
f 310 	312 	321
f 312 	314 	321
f 314 	316 	321
f 316 	318 	321
f 318 	320 	321
f 256 	255 	322
f 259 	256 	322
f 261 	259 	322
f 263 	261 	322
f 265 	263 	322
f 267 	265 	322
f 269 	267 	322
f 271 	269 	322
f 273 	271 	322
f 275 	273 	322
f 277 	275 	322
f 279 	277 	322
f 281 	279 	322
f 283 	281 	322
f 285 	283 	322
f 287 	285 	322
f 289 	287 	322
f 291 	289 	322
f 293 	291 	322
f 295 	293 	322
f 297 	295 	322
f 299 	297 	322
f 301 	299 	322
f 303 	301 	322
f 305 	303 	322
f 307 	305 	322
f 309 	307 	322
f 311 	309 	322
f 313 	311 	322
f 315 	313 	322
f 317 	315 	322
f 319 	317 	322
f 258 	320 	255
f 255 	320 	319
# 130 faces

 #end of obj_2

